<svg xmlns="http://www.w3.org/2000/svg" viewBox="-32 -32 64 64" width="64" height="64"><title>Honeycomb-Surfels (Hexels) logo</title><defs><linearGradient id="hx-ring" gradientUnits="userSpaceOnUse" x1="-17.28" y1="-24.67" x2="17.28" y2="24.67"><stop offset="0" stop-color="#f5be62"/><stop offset=".5" stop-color="#e8945a"/><stop offset="1" stop-color="#cd7353"/></linearGradient><linearGradient id="hx-core" x2="1" y2="1"><stop offset="0" stop-color="#62a9c4"/><stop offset="1" stop-color="#5d70ae"/></linearGradient></defs><path fill="url(#hx-ring)" d="M10.76-22.69a2.04 2.04 0 0 1 0 2.04l-4.5 7.79a2.04 2.04 0 0 1-1.77 1.02h-8.99a2.04 2.04 0 0 1-1.77-1.02l-4.5-7.79a2.04 2.04 0 0 1 0-2.04l4.5-7.79a2.04 2.04 0 0 1 1.77-1.02h8.99a2.04 2.04 0 0 1 1.77 1.02zm18.76 10.83a2.04 2.04 0 0 1 0 2.04l-4.5 7.79a2.04 2.04 0 0 1-1.77 1.02h-8.99a2.04 2.04 0 0 1-1.77-1.02l-4.5-7.79a2.04 2.04 0 0 1 0-2.04l4.5-7.79a2.04 2.04 0 0 1 1.77-1.02h8.99a2.04 2.04 0 0 1 1.77 1.02zm0 21.67a2.04 2.04 0 0 1 0 2.04l-4.5 7.79a2.04 2.04 0 0 1-1.77 1.02h-8.99a2.04 2.04 0 0 1-1.77-1.02l-4.5-7.79a2.04 2.04 0 0 1 0-2.04l4.5-7.79a2.04 2.04 0 0 1 1.77-1.02h8.99a2.04 2.04 0 0 1 1.77 1.02zm-18.76 10.83a2.04 2.04 0 0 1 0 2.04l-4.5 7.79a2.04 2.04 0 0 1-1.77 1.02h-8.99a2.04 2.04 0 0 1-1.77-1.02l-4.5-7.79a2.04 2.04 0 0 1 0-2.04l4.5-7.79a2.04 2.04 0 0 1 1.77-1.02h8.99a2.04 2.04 0 0 1 1.77 1.02zm-18.76-10.83a2.04 2.04 0 0 1 0 2.04l-4.5 7.79a2.04 2.04 0 0 1-1.77 1.02h-8.99a2.04 2.04 0 0 1-1.77-1.02l-4.5-7.79a2.04 2.04 0 0 1 0-2.04l4.5-7.79a2.04 2.04 0 0 1 1.77-1.02h8.99a2.04 2.04 0 0 1 1.77 1.02zm0-21.67a2.04 2.04 0 0 1 0 2.04l-4.5 7.79a2.04 2.04 0 0 1-1.77 1.02h-8.99a2.04 2.04 0 0 1-1.77-1.02l-4.5-7.79a2.04 2.04 0 0 1 0-2.04l4.5-7.79a2.04 2.04 0 0 1 1.77-1.02h8.99a2.04 2.04 0 0 1 1.77 1.02z"/><path fill="url(#hx-core)" d="M10.76-1.02a2.04 2.04 0 0 1 0 2.04l-4.5 7.79a2.04 2.04 0 0 1-1.77 1.02h-8.99a2.04 2.04 0 0 1-1.77-1.02l-4.5-7.79a2.04 2.04 0 0 1 0-2.04l4.5-7.79a2.04 2.04 0 0 1 1.77-1.02h8.99a2.04 2.04 0 0 1 1.77 1.02z"/></svg>
